<?xml version="1.0" encoding="UTF-8"?>
<svg width="204px" height="27px" viewBox="0 0 204 27" version="1.1" xmlns="http://www.w3.org/2000/svg" xmlns:xlink="http://www.w3.org/1999/xlink">
    <title>logo</title>
    <defs>
        <rect id="path-1" x="0" y="0" width="173.75" height="15"></rect>
        <rect id="path-3" x="0" y="0" width="172.5" height="15"></rect>
    </defs>
    <g id="页面-1" stroke="none" stroke-width="1" fill="none" fill-rule="evenodd">
        <g id="Extra-Large备份-2" transform="translate(-20.000000, -36.000000)">
            <g id="logo" transform="translate(20.000000, 34.000000)">
                <g id="编组" transform="translate(30.000000, 0.000000)">
                    <mask id="mask-2" fill="white">
                        <use xlink:href="#path-1"></use>
                    </mask>
                    <g id="矩形"></g>
                    <path d="M1.46484375,23.75 L5.15136719,23.75 L5.15136719,18.1958008 L8.54492188,18.1958008 C12.2558594,18.1958008 14.7338867,15.8032227 14.7338867,12.1777344 L14.7338867,12.1533203 C14.7338867,8.52783203 12.2558594,6.13525391 8.54492188,6.13525391 L1.46484375,6.13525391 L1.46484375,23.75 Z M7.64160156,9.05273438 C9.75341797,9.05273438 10.9985352,10.1635742 10.9985352,12.1655273 L10.9985352,12.1899414 C10.9985352,14.1918945 9.75341797,15.3149414 7.64160156,15.3149414 L5.15136719,15.3149414 L5.15136719,9.05273438 L7.64160156,9.05273438 Z M16.6015625,23.75 L20.1660156,23.75 L20.1660156,16.4257812 C20.1660156,14.5214844 21.1914062,13.4716797 22.9492188,13.4716797 C23.4619141,13.4716797 23.9501953,13.5449219 24.2431641,13.6669922 L24.2431641,10.5297852 C23.9746094,10.456543 23.6083984,10.3955078 23.2177734,10.3955078 C21.6918945,10.3955078 20.6298828,11.3354492 20.2392578,12.9467773 L20.1660156,12.9467773 L20.1660156,10.6640625 L16.6015625,10.6640625 L16.6015625,23.75 Z M43.2128906,10.6640625 L43.2128906,24.0185547 C43.2128906,26.6796875 41.5893555,28.059082 38.5253906,28.059082 C38.1958008,28.059082 37.7685547,28.046875 37.5488281,28.0224609 L37.5488281,25.3369141 C37.6831055,25.3491211 37.8417969,25.3613281 38.0004883,25.3613281 C39.1845703,25.3613281 39.6484375,24.9829102 39.6484375,23.9208984 L39.6484375,10.6640625 L43.2128906,10.6640625 Z M31.262207,10.3955078 C35.1806641,10.3955078 37.7563477,12.9467773 37.7563477,17.1826172 L37.7563477,17.2070312 C37.7563477,21.4794922 35.2294922,24.0185547 31.2744141,24.0185547 C27.2949219,24.0185547 24.7924805,21.4672852 24.7924805,17.2070312 L24.7924805,17.1826172 C24.7924805,12.9711914 27.355957,10.3955078 31.262207,10.3955078 Z M31.262207,13.190918 C29.5410156,13.190918 28.4179688,14.6557617 28.4179688,17.1826172 L28.4179688,17.2070312 C28.4179688,19.7705078 29.5288086,21.2231445 31.2866211,21.2231445 C33.0200195,21.2231445 34.1308594,19.7583008 34.1308594,17.2070312 L34.1308594,17.1826172 C34.1308594,14.6557617 32.9956055,13.190918 31.262207,13.190918 Z M41.4306641,5.26855469 C42.5048828,5.26855469 43.3349609,6.11083984 43.3349609,7.12402344 C43.3349609,8.13720703 42.5048828,8.97949219 41.4306641,8.97949219 C40.3564453,8.97949219 39.5263672,8.13720703 39.5263672,7.12402344 C39.5263672,6.11083984 40.3564453,5.26855469 41.4306641,5.26855469 Z M51.550293,24.0185547 C55.2856445,24.0185547 57.0922852,21.809082 57.4951172,19.8803711 L57.5317383,19.7460938 L54.2602539,19.7460938 L54.2358398,19.8193359 C53.9794922,20.5517578 53.0883789,21.3574219 51.6235352,21.3574219 C49.8046875,21.3574219 48.6694336,20.1367188 48.6328125,18.0493164 L57.6416016,18.0493164 L57.6416016,16.9506836 C57.6416016,12.9956055 55.2368164,10.3955078 51.4038086,10.3955078 C47.5708008,10.3955078 45.1171875,13.0566406 45.1171875,17.2192383 L45.1171875,17.2314453 C45.1171875,21.418457 47.5463867,24.0185547 51.550293,24.0185547 Z M51.4648438,13.0566406 C52.9418945,13.0566406 54.0039062,13.996582 54.2236328,15.8032227 L48.6694336,15.8032227 C48.9013672,14.0332031 50,13.0566406 51.4648438,13.0566406 Z M65.4541016,24.0185547 C68.9453125,24.0185547 71.2036133,21.8457031 71.3745117,18.9892578 L71.3745117,18.9160156 L68.0541992,18.9160156 L68.0419922,19.0258789 C67.7978516,20.3442383 66.9067383,21.2231445 65.4785156,21.2231445 C63.7207031,21.2231445 62.6220703,19.7705078 62.6220703,17.2070312 L62.6220703,17.1948242 C62.6220703,14.6923828 63.7207031,13.190918 65.4663086,13.190918 C66.9433594,13.190918 67.8100586,14.1430664 68.0297852,15.3881836 L68.0541992,15.4980469 L71.3623047,15.4980469 L71.3623047,15.4125977 C71.2280273,12.5805664 68.9697266,10.3955078 65.4174805,10.3955078 C61.4990234,10.3955078 58.996582,12.9956055 58.996582,17.1826172 L58.996582,17.1948242 C58.996582,21.418457 61.4624023,24.0185547 65.4541016,24.0185547 Z M78.2958984,24.0185547 C79.0405273,24.0185547 79.6142578,23.9453125 80.0170898,23.8842773 L80.0170898,21.2719727 C79.7973633,21.2963867 79.5654297,21.3330078 79.2480469,21.3330078 C78.1738281,21.3330078 77.6245117,20.9179688 77.6245117,19.6972656 L77.6245117,13.3496094 L80.0170898,13.3496094 L80.0170898,10.6640625 L77.6245117,10.6640625 L77.6245117,7.46582031 L74.0234375,7.46582031 L74.0234375,10.6640625 L72.2045898,10.6640625 L72.2045898,13.3496094 L74.0234375,13.3496094 L74.0234375,20.0878906 C74.0234375,22.8955078 75.390625,24.0185547 78.2958984,24.0185547 Z M87.2314453,23.75 L90.9179688,23.75 L90.9179688,16.328125 L98.8525391,16.328125 L98.8525391,23.75 L102.539062,23.75 L102.539062,6.13525391 L98.8525391,6.13525391 L98.8525391,13.2885742 L90.9179688,13.2885742 L90.9179688,6.13525391 L87.2314453,6.13525391 L87.2314453,23.75 Z M111.169434,24.0185547 C115.124512,24.0185547 117.651367,21.4794922 117.651367,17.2070312 L117.651367,17.1826172 C117.651367,12.9467773 115.075684,10.3955078 111.157227,10.3955078 C107.250977,10.3955078 104.6875,12.9711914 104.6875,17.1826172 L104.6875,17.2070312 C104.6875,21.4672852 107.189941,24.0185547 111.169434,24.0185547 Z M111.181641,21.2231445 C109.423828,21.2231445 108.312988,19.7705078 108.312988,17.2070312 L108.312988,17.1826172 C108.312988,14.6557617 109.436035,13.190918 111.157227,13.190918 C112.890625,13.190918 114.025879,14.6557617 114.025879,17.1826172 L114.025879,17.2070312 C114.025879,19.7583008 112.915039,21.2231445 111.181641,21.2231445 Z M119.567871,23.75 L123.132324,23.75 L123.132324,6.13525391 L119.567871,6.13525391 L119.567871,23.75 Z M127.392578,8.97949219 C128.466797,8.97949219 129.296875,8.13720703 129.296875,7.12402344 C129.296875,6.11083984 128.466797,5.26855469 127.392578,5.26855469 C126.318359,5.26855469 125.488281,6.11083984 125.488281,7.12402344 C125.488281,8.13720703 126.318359,8.97949219 127.392578,8.97949219 Z M125.610352,23.75 L129.174805,23.75 L129.174805,10.6640625 L125.610352,10.6640625 L125.610352,23.75 Z M136.401367,24.0185547 C138.293457,24.0185547 139.733887,23.0664062 140.429688,21.5161133 L140.50293,21.5161133 L140.50293,23.75 L144.067383,23.75 L144.067383,6.13525391 L140.50293,6.13525391 L140.50293,12.9345703 L140.429688,12.9345703 C139.72168,11.3476562 138.256836,10.3955078 136.401367,10.3955078 C133.105469,10.3955078 131.079102,12.9345703 131.079102,17.1948242 L131.079102,17.2070312 C131.079102,21.4550781 133.105469,24.0185547 136.401367,24.0185547 Z M137.597656,21.0644531 C135.81543,21.0644531 134.70459,19.5874023 134.70459,17.2070312 L134.70459,17.1948242 C134.70459,14.8022461 135.827637,13.3496094 137.597656,13.3496094 C139.318848,13.3496094 140.515137,14.8388672 140.515137,17.1948242 L140.515137,17.2070312 C140.515137,19.5751953 139.331055,21.0644531 137.597656,21.0644531 Z M150.341797,23.9575195 C152.062988,23.9575195 153.45459,23.1396484 154.199219,21.796875 L154.272461,21.796875 L154.272461,23.75 L157.836914,23.75 L157.836914,14.777832 C157.836914,12.1411133 155.651855,10.3955078 152.270508,10.3955078 C148.815918,10.3955078 146.740723,12.1289062 146.54541,14.5458984 L146.533203,14.6923828 L149.79248,14.6923828 L149.816895,14.5825195 C149.987793,13.7402344 150.793457,13.1176758 152.124023,13.1176758 C153.515625,13.1176758 154.272461,13.8378906 154.272461,14.9975586 L154.272461,15.8032227 L151.037598,15.9985352 C147.790527,16.2060547 145.947266,17.5976562 145.947266,19.9780273 L145.947266,20.0024414 C145.947266,22.3095703 147.717285,23.9575195 150.341797,23.9575195 Z M149.475098,19.8193359 L149.475098,19.7949219 C149.475098,18.8671875 150.195312,18.28125 151.574707,18.1958008 L154.272461,18.0249023 L154.272461,18.9648438 C154.272461,20.3320312 153.100586,21.3574219 151.501465,21.3574219 C150.268555,21.3574219 149.475098,20.7836914 149.475098,19.8193359 Z M162.121582,28.059082 C165.026855,28.059082 166.784668,27.0703125 167.810059,23.9819336 L172.302246,10.6640625 L168.54248,10.6640625 L165.771484,20.8935547 L165.673828,20.8935547 L162.915039,10.6640625 L158.996582,10.6640625 L163.623047,23.75 L163.464355,24.1772461 C163.146973,25.0683594 162.561035,25.3735352 161.499023,25.3735352 C160.974121,25.3735352 160.559082,25.300293 160.302734,25.2514648 L160.302734,27.9003906 C160.717773,27.9736328 161.425781,28.059082 162.121582,28.059082 Z" id="形状结合" fill="#00031B" fill-rule="nonzero" mask="url(#mask-2)"></path>
                </g>
                <g id="编组备份" transform="translate(32.500000, 15.000000)">
                    <mask id="mask-4" fill="white">
                        <use xlink:href="#path-3"></use>
                    </mask>
                    <g id="矩形"></g>
                    <path d="M1.46484375,8.75 L5.15136719,8.75 L5.15136719,3.19580078 L8.54492188,3.19580078 C12.2558594,3.19580078 14.7338867,0.803222656 14.7338867,-2.82226562 L14.7338867,-2.84667969 C14.7338867,-6.47216797 12.2558594,-8.86474609 8.54492188,-8.86474609 L1.46484375,-8.86474609 L1.46484375,8.75 Z M7.64160156,-5.94726562 C9.75341797,-5.94726562 10.9985352,-4.83642578 10.9985352,-2.83447266 L10.9985352,-2.81005859 C10.9985352,-0.808105469 9.75341797,0.314941406 7.64160156,0.314941406 L5.15136719,0.314941406 L5.15136719,-5.94726562 L7.64160156,-5.94726562 Z M16.6015625,8.75 L20.1660156,8.75 L20.1660156,1.42578125 C20.1660156,-0.478515625 21.1914062,-1.52832031 22.9492188,-1.52832031 C23.4619141,-1.52832031 23.9501953,-1.45507812 24.2431641,-1.33300781 L24.2431641,-4.47021484 C23.9746094,-4.54345703 23.6083984,-4.60449219 23.2177734,-4.60449219 C21.6918945,-4.60449219 20.6298828,-3.66455078 20.2392578,-2.05322266 L20.1660156,-2.05322266 L20.1660156,-4.3359375 L16.6015625,-4.3359375 L16.6015625,8.75 Z M43.2128906,-4.3359375 L43.2128906,9.01855469 C43.2128906,11.6796875 41.5893555,13.059082 38.5253906,13.059082 C38.1958008,13.059082 37.7685547,13.046875 37.5488281,13.0224609 L37.5488281,10.3369141 C37.6831055,10.3491211 37.8417969,10.3613281 38.0004883,10.3613281 C39.1845703,10.3613281 39.6484375,9.98291016 39.6484375,8.92089844 L39.6484375,-4.3359375 L43.2128906,-4.3359375 Z M31.262207,-4.60449219 C35.1806641,-4.60449219 37.7563477,-2.05322266 37.7563477,2.18261719 L37.7563477,2.20703125 C37.7563477,6.47949219 35.2294922,9.01855469 31.2744141,9.01855469 C27.2949219,9.01855469 24.7924805,6.46728516 24.7924805,2.20703125 L24.7924805,2.18261719 C24.7924805,-2.02880859 27.355957,-4.60449219 31.262207,-4.60449219 Z M31.262207,-1.80908203 C29.5410156,-1.80908203 28.4179688,-0.344238281 28.4179688,2.18261719 L28.4179688,2.20703125 C28.4179688,4.77050781 29.5288086,6.22314453 31.2866211,6.22314453 C33.0200195,6.22314453 34.1308594,4.75830078 34.1308594,2.20703125 L34.1308594,2.18261719 C34.1308594,-0.344238281 32.9956055,-1.80908203 31.262207,-1.80908203 Z M41.4306641,-9.73144531 C42.5048828,-9.73144531 43.3349609,-8.88916016 43.3349609,-7.87597656 C43.3349609,-6.86279297 42.5048828,-6.02050781 41.4306641,-6.02050781 C40.3564453,-6.02050781 39.5263672,-6.86279297 39.5263672,-7.87597656 C39.5263672,-8.88916016 40.3564453,-9.73144531 41.4306641,-9.73144531 Z M51.550293,9.01855469 C55.2856445,9.01855469 57.0922852,6.80908203 57.4951172,4.88037109 L57.5317383,4.74609375 L54.2602539,4.74609375 L54.2358398,4.81933594 C53.9794922,5.55175781 53.0883789,6.35742188 51.6235352,6.35742188 C49.8046875,6.35742188 48.6694336,5.13671875 48.6328125,3.04931641 L57.6416016,3.04931641 L57.6416016,1.95068359 C57.6416016,-2.00439453 55.2368164,-4.60449219 51.4038086,-4.60449219 C47.5708008,-4.60449219 45.1171875,-1.94335938 45.1171875,2.21923828 L45.1171875,2.23144531 C45.1171875,6.41845703 47.5463867,9.01855469 51.550293,9.01855469 Z M51.4648438,-1.94335938 C52.9418945,-1.94335938 54.0039062,-1.00341797 54.2236328,0.803222656 L48.6694336,0.803222656 C48.9013672,-0.966796875 50,-1.94335938 51.4648438,-1.94335938 Z M65.4541016,9.01855469 C68.9453125,9.01855469 71.2036133,6.84570312 71.3745117,3.98925781 L71.3745117,3.91601562 L68.0541992,3.91601562 L68.0419922,4.02587891 C67.7978516,5.34423828 66.9067383,6.22314453 65.4785156,6.22314453 C63.7207031,6.22314453 62.6220703,4.77050781 62.6220703,2.20703125 L62.6220703,2.19482422 C62.6220703,-0.307617188 63.7207031,-1.80908203 65.4663086,-1.80908203 C66.9433594,-1.80908203 67.8100586,-0.856933594 68.0297852,0.388183594 L68.0541992,0.498046875 L71.3623047,0.498046875 L71.3623047,0.412597656 C71.2280273,-2.41943359 68.9697266,-4.60449219 65.4174805,-4.60449219 C61.4990234,-4.60449219 58.996582,-2.00439453 58.996582,2.18261719 L58.996582,2.19482422 C58.996582,6.41845703 61.4624023,9.01855469 65.4541016,9.01855469 Z M78.2958984,9.01855469 C79.0405273,9.01855469 79.6142578,8.9453125 80.0170898,8.88427734 L80.0170898,6.27197266 C79.7973633,6.29638672 79.5654297,6.33300781 79.2480469,6.33300781 C78.1738281,6.33300781 77.6245117,5.91796875 77.6245117,4.69726562 L77.6245117,-1.65039062 L80.0170898,-1.65039062 L80.0170898,-4.3359375 L77.6245117,-4.3359375 L77.6245117,-7.53417969 L74.0234375,-7.53417969 L74.0234375,-4.3359375 L72.2045898,-4.3359375 L72.2045898,-1.65039062 L74.0234375,-1.65039062 L74.0234375,5.08789062 C74.0234375,7.89550781 75.390625,9.01855469 78.2958984,9.01855469 Z M87.2314453,8.75 L90.9179688,8.75 L90.9179688,1.328125 L98.8525391,1.328125 L98.8525391,8.75 L102.539062,8.75 L102.539062,-8.86474609 L98.8525391,-8.86474609 L98.8525391,-1.71142578 L90.9179688,-1.71142578 L90.9179688,-8.86474609 L87.2314453,-8.86474609 L87.2314453,8.75 Z M111.169434,9.01855469 C115.124512,9.01855469 117.651367,6.47949219 117.651367,2.20703125 L117.651367,2.18261719 C117.651367,-2.05322266 115.075684,-4.60449219 111.157227,-4.60449219 C107.250977,-4.60449219 104.6875,-2.02880859 104.6875,2.18261719 L104.6875,2.20703125 C104.6875,6.46728516 107.189941,9.01855469 111.169434,9.01855469 Z M111.181641,6.22314453 C109.423828,6.22314453 108.312988,4.77050781 108.312988,2.20703125 L108.312988,2.18261719 C108.312988,-0.344238281 109.436035,-1.80908203 111.157227,-1.80908203 C112.890625,-1.80908203 114.025879,-0.344238281 114.025879,2.18261719 L114.025879,2.20703125 C114.025879,4.75830078 112.915039,6.22314453 111.181641,6.22314453 Z M119.567871,8.75 L123.132324,8.75 L123.132324,-8.86474609 L119.567871,-8.86474609 L119.567871,8.75 Z M127.392578,-6.02050781 C128.466797,-6.02050781 129.296875,-6.86279297 129.296875,-7.87597656 C129.296875,-8.88916016 128.466797,-9.73144531 127.392578,-9.73144531 C126.318359,-9.73144531 125.488281,-8.88916016 125.488281,-7.87597656 C125.488281,-6.86279297 126.318359,-6.02050781 127.392578,-6.02050781 Z M125.610352,8.75 L129.174805,8.75 L129.174805,-4.3359375 L125.610352,-4.3359375 L125.610352,8.75 Z M136.401367,9.01855469 C138.293457,9.01855469 139.733887,8.06640625 140.429688,6.51611328 L140.50293,6.51611328 L140.50293,8.75 L144.067383,8.75 L144.067383,-8.86474609 L140.50293,-8.86474609 L140.50293,-2.06542969 L140.429688,-2.06542969 C139.72168,-3.65234375 138.256836,-4.60449219 136.401367,-4.60449219 C133.105469,-4.60449219 131.079102,-2.06542969 131.079102,2.19482422 L131.079102,2.20703125 C131.079102,6.45507812 133.105469,9.01855469 136.401367,9.01855469 Z M137.597656,6.06445312 C135.81543,6.06445312 134.70459,4.58740234 134.70459,2.20703125 L134.70459,2.19482422 C134.70459,-0.197753906 135.827637,-1.65039062 137.597656,-1.65039062 C139.318848,-1.65039062 140.515137,-0.161132812 140.515137,2.19482422 L140.515137,2.20703125 C140.515137,4.57519531 139.331055,6.06445312 137.597656,6.06445312 Z M150.341797,8.95751953 C152.062988,8.95751953 153.45459,8.13964844 154.199219,6.796875 L154.272461,6.796875 L154.272461,8.75 L157.836914,8.75 L157.836914,-0.222167969 C157.836914,-2.85888672 155.651855,-4.60449219 152.270508,-4.60449219 C148.815918,-4.60449219 146.740723,-2.87109375 146.54541,-0.454101562 L146.533203,-0.307617188 L149.79248,-0.307617188 L149.816895,-0.417480469 C149.987793,-1.25976562 150.793457,-1.88232422 152.124023,-1.88232422 C153.515625,-1.88232422 154.272461,-1.16210938 154.272461,-0.00244140625 L154.272461,0.803222656 L151.037598,0.998535156 C147.790527,1.20605469 145.947266,2.59765625 145.947266,4.97802734 L145.947266,5.00244141 C145.947266,7.30957031 147.717285,8.95751953 150.341797,8.95751953 Z M149.475098,4.81933594 L149.475098,4.79492188 C149.475098,3.8671875 150.195312,3.28125 151.574707,3.19580078 L154.272461,3.02490234 L154.272461,3.96484375 C154.272461,5.33203125 153.100586,6.35742188 151.501465,6.35742188 C150.268555,6.35742188 149.475098,5.78369141 149.475098,4.81933594 Z M162.121582,13.059082 C165.026855,13.059082 166.784668,12.0703125 167.810059,8.98193359 L172.302246,-4.3359375 L168.54248,-4.3359375 L165.771484,5.89355469 L165.673828,5.89355469 L162.915039,-4.3359375 L158.996582,-4.3359375 L163.623047,8.75 L163.464355,9.17724609 C163.146973,10.0683594 162.561035,10.3735352 161.499023,10.3735352 C160.974121,10.3735352 160.559082,10.300293 160.302734,10.2514648 L160.302734,12.9003906 C160.717773,12.9736328 161.425781,13.059082 162.121582,13.059082 Z" id="形状结合" fill="#00031B" fill-rule="nonzero" mask="url(#mask-4)"></path>
                </g>
                <rect id="矩形" stroke="#00031B" x="0.5" y="3" width="4" height="9"></rect>
                <rect id="矩形备份-3" stroke="#00031B" x="0.5" y="18" width="4" height="9"></rect>
                <rect id="矩形备份" stroke="#00031B" x="20.5" y="3" width="4" height="9"></rect>
                <rect id="矩形备份-4" stroke="#00031B" x="20.5" y="18" width="4" height="9"></rect>
                <polygon id="矩形备份-2" fill="#0007FF" transform="translate(11.250000, 13.750000) rotate(-90.000000) translate(-11.250000, -13.750000) " points="10 8.75 12.5 8.75 12.5 18.75 10 18.75"></polygon>
                <polygon id="矩形备份-5" fill="#0007FF" transform="translate(13.750000, 16.250000) rotate(-90.000000) translate(-13.750000, -16.250000) " points="12.5 11.25 15 11.25 15 21.25 12.5 21.25"></polygon>
            </g>
        </g>
    </g>
</svg>