<?xml version="1.0" encoding="UTF-8"?>
<svg width="164px" height="30px" viewBox="0 0 164 30" version="1.1" xmlns="http://www.w3.org/2000/svg" xmlns:xlink="http://www.w3.org/1999/xlink">
    <title>logo3</title>
    <g id="logo3" stroke="none" stroke-width="1" fill="none" fill-rule="evenodd">
        <path d="M139.364,15.999046 L136.496,22.52 L134.32,22.52 L136.16,18.472 L135.68,18.472 L134.648,15.999046 L136.781,15.999046 L137.04,16.648 L137.308,15.999046 L139.364,15.999046 Z M52.784,15.999046 L52.784,19.864 C52.784,20.824 52.5413333,21.5066667 52.056,21.912 C51.5706667,22.3173333 50.912,22.52 50.08,22.52 L49.136,22.52 L49.136,20.776 L49.76,20.776 C50.112,20.776 50.3626667,20.7066667 50.512,20.568 C50.6613333,20.4293333 50.736,20.1946667 50.736,19.864 L50.736,15.999046 L52.784,15.999046 Z M57.352,16.984 C57.7413333,17.336 58.2133333,17.512 58.768,17.512 C59.184,17.512 59.5333333,17.4186667 59.816,17.232 C60.0986667,17.0453333 60.3093333,16.8026667 60.448,16.504 L62.528,16.504 C62.3786667,17.0053333 62.1306667,17.4613333 61.784,17.872 C61.4373333,18.2826667 61.0106667,18.6053333 60.504,18.84 C59.9973333,19.0746667 59.424,19.192 58.784,19.192 C57.984,19.192 57.2746667,19.0213333 56.656,18.68 C56.0373333,18.3386667 55.552,17.8586667 55.2,17.24 C54.9852095,16.8624894 54.8359516,16.4492337 54.7522263,16.0002329 L56.7765107,16.0001311 C56.8759975,16.3991204 57.0678273,16.7270767 57.352,16.984 Z M131.647,15.999046 L131.648,19 L129.904,19 L129.712,17.72 C129.477333,18.1466667 129.149333,18.4986667 128.728,18.776 C128.306667,19.0533333 127.765333,19.192 127.104,19.192 C126.421333,19.192 125.861333,19.0826667 125.424,18.864 C124.986667,18.6453333 124.661333,18.3546667 124.448,17.992 C124.234667,17.6293333 124.128,17.2293333 124.128,16.792 C124.128,16.5065476 124.171322,16.2419537 124.257965,15.9982184 L126.52551,15.998051 C126.36717,16.1734456 126.288,16.3794286 126.288,16.616 C126.288,16.9253333 126.405333,17.1653333 126.64,17.336 C126.874667,17.5066667 127.184,17.592 127.568,17.592 C128.154667,17.592 128.610667,17.4 128.936,17.016 C129.179742,16.7283048 129.356126,16.3897174 129.465154,16.0002379 L131.647,15.999046 Z M66.928,16.808 C67.3226667,17.2346667 67.8026667,17.448 68.368,17.448 C68.7946667,17.448 69.1653333,17.3413333 69.48,17.128 C69.7946667,16.9146667 70.0053333,16.6106667 70.112,16.216 L72.272,16.216 C72.08,17.112 71.6373333,17.832 70.944,18.376 C70.2506667,18.92 69.3973333,19.192 68.384,19.192 C67.5733333,19.192 66.8586667,19.016 66.24,18.664 C65.6213333,18.312 65.1333333,17.8213333 64.776,17.192 C64.5677977,16.8253153 64.4202505,16.4278503 64.3333584,15.9996051 L66.4699587,16.0005334 C66.5683921,16.3151391 66.7210726,16.5842947 66.928,16.808 Z M48.28,17.2 C47.9226667,17.824 47.4346667,18.312 46.816,18.664 C46.1973333,19.016 45.5093333,19.192 44.752,19.192 C43.984,19.192 43.2933333,19.016 42.68,18.664 C42.0666667,18.312 41.5813333,17.824 41.224,17.2 C41.0143902,16.8339649 40.8662583,16.4339793 40.7796045,16.0000431 L42.9085157,16.0009051 C43.0052794,16.3290011 43.1584408,16.6006995 43.368,16.816 C43.7573333,17.216 44.2186667,17.416 44.752,17.416 C45.2853333,17.416 45.7493333,17.216 46.144,16.816 C46.3564299,16.6006995 46.5116894,16.3290011 46.6097786,16.0009051 L48.7243955,16.0000431 C48.6377417,16.4339793 48.4896098,16.8339649 48.28,17.2 Z M122.288,15.999046 L122.288,19 L120.464,19 L120.24,17.864 C119.984,18.216 119.645333,18.5253333 119.224,18.792 C118.802667,19.0586667 118.256,19.192 117.584,19.192 C116.837333,19.192 116.170667,19.0106667 115.584,18.648 C114.997333,18.2853333 114.533333,17.7893333 114.192,17.16 C113.997402,16.8012103 113.858276,16.4146851 113.77462,16.0004243 L115.934028,16.0005666 C116.040498,16.2711354 116.195822,16.5136132 116.4,16.728 C116.826667,17.176 117.365333,17.4 118.016,17.4 C118.677333,17.4 119.218667,17.1786667 119.64,16.736 C119.845188,16.5204224 120.000414,16.2751199 120.105676,16.0000925 L122.288,15.999046 Z M103.16,17.2 C102.802667,17.824 102.314667,18.312 101.696,18.664 C101.077333,19.016 100.389333,19.192 99.632,19.192 C98.864,19.192 98.1733333,19.016 97.56,18.664 C96.9466667,18.312 96.4613333,17.824 96.104,17.2 C95.8943902,16.8339649 95.7462583,16.4339793 95.6596045,16.0000431 L97.7885157,16.0009051 C97.8852794,16.3290011 98.0384408,16.6006995 98.248,16.816 C98.6373333,17.216 99.0986667,17.416 99.632,17.416 C100.165333,17.416 100.629333,17.216 101.024,16.816 C101.23643,16.6006995 101.391689,16.3290011 101.489779,16.0009051 L103.604395,16.0000431 C103.517742,16.4339793 103.36961,16.8339649 103.16,17.2 Z M76.816,15.999046 L76.816,16.248 C76.816,16.632 76.8986667,16.896 77.064,17.04 C77.2293333,17.184 77.5146667,17.256 77.92,17.256 L78.912,17.256 L78.912,19 L77.52,19 C76.688,19 76.0213333,18.7973333 75.52,18.392 C75.0186667,17.9866667 74.768,17.2666667 74.768,16.232 L74.768,15.999046 L76.816,15.999046 Z M27.136,15.999046 L27.136,19 L25.088,19 L25.088,15.999046 L27.136,15.999046 Z M93.696,15.999046 L93.696,19 L91.648,19 L91.648,15.999046 L93.696,15.999046 Z M86.624,15.999046 L86.624,19 L84.576,19 L84.576,15.999046 L86.624,15.999046 Z M36.8,15.999046 L36.8,19 L34.752,19 L34.752,15.999046 L36.8,15.999046 Z M107.567,15.999046 L107.568,19 L105.52,19 L105.519,15.999046 L107.567,15.999046 Z M111.792,15.999046 L111.792,19 L109.744,19 L109.744,15.999046 L111.792,15.999046 Z" id="形状结合" fill="#0007FF" fill-rule="nonzero"></path>
        <path d="M27.232,7.8 C28.128,7.8 28.8693333,7.94933333 29.456,8.248 C30.0426667,8.54666667 30.48,8.95733333 30.768,9.48 C31.056,10.0026667 31.2,10.5893333 31.2,11.24 C31.2,11.8586667 31.0613333,12.4266667 30.784,12.944 C30.5066667,13.4613333 30.0746667,13.8773333 29.488,14.192 C28.9013333,14.5066667 28.1493333,14.664 27.232,14.664 L25.136,14.664 L25.136,16 L23.088,16 L23.088,7.8 L27.232,7.8 Z M37.696,10.872 L37.696,13.032 L37.12,13.032 C36.672,13.032 36.272,13.1013333 35.92,13.24 C35.568,13.3786667 35.2933333,13.6186667 35.096,13.96 C34.8986667,14.3013333 34.8,14.776 34.8,15.384 L34.8,16 L32.752,16 L32.752,11.064 L34.576,11.064 L34.768,12.552 C35.056,12.04 35.448,11.632 35.944,11.328 C36.44,11.024 37.024,10.872 37.696,10.872 Z M42.768,10.872 C43.5253333,10.872 44.2106667,11.048 44.824,11.4 C45.4373333,11.752 45.9226667,12.24 46.28,12.864 C46.6373333,13.488 46.816,14.2106667 46.816,15.032 C46.816,15.3720143 46.7853804,15.6951194 46.7241413,16.0013151 L44.6095524,16.0016612 C44.6938508,15.7200204 44.736,15.3968 44.736,15.032 C44.736,14.2426667 44.5386667,13.648 44.144,13.248 C43.7493333,12.848 43.2906667,12.648 42.768,12.648 C42.224,12.648 41.7573333,12.848 41.368,13.248 C40.9786667,13.648 40.784,14.2426667 40.784,15.032 C40.784,15.3968 40.8255796,15.7200204 40.9087388,16.0016612 L38.7798587,16.0013151 C38.7186196,15.6951194 38.688,15.3720143 38.688,15.032 C38.688,14.2106667 38.8693333,13.488 39.232,12.864 C39.5946667,12.24 40.0826667,11.752 40.696,11.4 C41.3093333,11.048 42,10.872 42.768,10.872 Z M50.784,11.064 L50.784,16 L48.736,16 L48.736,11.064 L50.784,11.064 Z M56.8,10.872 C57.5786667,10.872 58.2666667,11.0426667 58.864,11.384 C59.4613333,11.7253333 59.928,12.192 60.264,12.784 C60.6,13.376 60.768,14.0346667 60.768,14.76 C60.768,14.8773333 60.7653333,15 60.76,15.128 C60.7546667,15.256 60.7466667,15.3893333 60.736,15.528 L54.704,15.528 C54.7155653,15.6956972 54.7398663,15.8535977 54.7769028,16.0017017 L52.7524093,16.0012136 C52.6988031,15.7140956 52.672,15.4123577 52.672,15.096 C52.672,14.2746667 52.8453333,13.544 53.192,12.904 C53.5386667,12.264 54.0186667,11.7653333 54.632,11.408 C55.2453333,11.0506667 55.968,10.872 56.8,10.872 Z M66.384,10.872 C67.3973333,10.872 68.2506667,11.136 68.944,11.664 C69.6373333,12.192 70.08,12.92 70.272,13.848 L68.112,13.848 C68.0053333,13.464 67.7946667,13.1626667 67.48,12.944 C67.1653333,12.7253333 66.7946667,12.616 66.368,12.616 C65.8026667,12.616 65.3226667,12.8293333 64.928,13.256 C64.5333333,13.6826667 64.336,14.2746667 64.336,15.032 C64.336,15.3924576 64.3807028,15.7154614 64.4701084,16.0010116 L62.3336089,16.0008388 C62.271203,15.6937269 62.24,15.3707806 62.24,15.032 C62.24,14.2213333 62.4186667,13.5013333 62.776,12.872 C63.1333333,12.2426667 63.6213333,11.752 64.24,11.4 C64.8586667,11.048 65.5733333,10.872 66.384,10.872 Z M74.816,8.936 L74.816,11.064 L76.96,11.064 L76.96,12.776 L74.816,12.776 L74.816,16 L72.768,16 L72.768,12.776 L71.408,12.776 L71.408,11.064 L72.768,11.064 L73.008,8.936 L74.816,8.936 Z M84.624,7.8 L84.624,12.456 L89.648,12.456 L89.648,7.8 L91.696,7.8 L91.696,16 L89.648,16 L89.648,14.12 L84.624,14.12 L84.624,16 L82.576,16 L82.576,7.8 L84.624,7.8 Z M97.648,10.872 C98.4053333,10.872 99.0906667,11.048 99.704,11.4 C100.317333,11.752 100.802667,12.24 101.16,12.864 C101.517333,13.488 101.696,14.2106667 101.696,15.032 C101.696,15.3720143 101.66538,15.6951194 101.604141,16.0013151 L99.4895524,16.0016612 C99.5738508,15.7200204 99.616,15.3968 99.616,15.032 C99.616,14.2426667 99.4186667,13.648 99.024,13.248 C98.6293333,12.848 98.1706667,12.648 97.648,12.648 C97.104,12.648 96.6373333,12.848 96.248,13.248 C95.8586667,13.648 95.664,14.2426667 95.664,15.032 C95.664,15.3968 95.7055796,15.7200204 95.7887388,16.0016612 L93.6598587,16.0013151 C93.5986196,15.6951194 93.568,15.3720143 93.568,15.032 C93.568,14.2106667 93.7493333,13.488 94.112,12.864 C94.4746667,12.24 94.9626667,11.752 95.576,11.4 C96.1893333,11.048 96.88,10.872 97.648,10.872 Z M105.568,7.48 L105.567,16 L103.519,16 L103.52,7.48 L105.568,7.48 Z M109.792,11.064 L109.792,16 L107.744,16 L107.744,11.064 L109.792,11.064 Z M120.288,7.48 L120.288,16 L118.105148,16.0014697 C118.216383,15.7114019 118.272,15.3882453 118.272,15.032 C118.272,14.3386667 118.061333,13.7706667 117.64,13.328 C117.218667,12.8853333 116.677333,12.664 116.016,12.664 C115.365333,12.664 114.826667,12.8826667 114.4,13.32 C113.973333,13.7573333 113.76,14.3226667 113.76,15.016 C113.76,15.3780741 113.818179,15.706695 113.934538,16.0018627 L111.774734,16.0009862 C111.711578,15.6884464 111.68,15.3601176 111.68,15.016 C111.68,14.216 111.850667,13.504 112.192,12.88 C112.533333,12.256 112.997333,11.7653333 113.584,11.408 C114.170667,11.0506667 114.837333,10.872 115.584,10.872 C116.181333,10.872 116.704,10.984 117.152,11.208 C117.6,11.432 117.962667,11.7466667 118.24,12.152 L118.24,7.48 L120.288,7.48 Z M126,10.872 C127.130667,10.872 128.021333,11.1546667 128.672,11.72 C129.322667,12.2853333 129.648,13.0853333 129.648,14.12 L129.647,16 L127.46481,16.0014646 C127.501469,15.8707149 127.530532,15.7342267 127.552,15.592 L125.808,15.592 C125.264,15.592 124.874667,15.6906667 124.64,15.888 C124.597464,15.9237686 124.558784,15.9610266 124.523958,15.999774 L122.257511,15.9994953 C122.394178,15.6142517 122.639007,15.2810866 122.992,15 C123.568,14.5413333 124.432,14.312 125.584,14.312 L127.6,14.312 L127.6,14.12 C127.6,13.576 127.445333,13.176 127.136,12.92 C126.826667,12.664 126.442667,12.536 125.984,12.536 C125.568,12.536 125.205333,12.6346667 124.896,12.832 C124.586667,13.0293333 124.394667,13.32 124.32,13.704 L122.32,13.704 C122.373333,13.128 122.568,12.6266667 122.904,12.2 C123.24,11.7733333 123.674667,11.4453333 124.208,11.216 C124.741333,10.9866667 125.338667,10.872 126,10.872 Z M132.816,11.064 L134.781,16 L132.649,16 L130.592,11.064 L132.816,11.064 Z M139.536,11.064 L137.364,16 L135.308,16 L137.36,11.064 L139.536,11.064 Z M56.8,12.536 C56.2986667,12.536 55.856,12.6773333 55.472,12.96 C55.088,13.2426667 54.8426667,13.672 54.736,14.248 L58.688,14.248 C58.656,13.7253333 58.464,13.3093333 58.112,13 C57.76,12.6906667 57.3226667,12.536 56.8,12.536 Z M27.104,9.464 L25.136,9.464 L25.136,13 L27.104,13 C27.8186667,13 28.3333333,12.8426667 28.648,12.528 C28.9626667,12.2133333 29.12,11.784 29.12,11.24 C29.12,10.6853333 28.9626667,10.2506667 28.648,9.936 C28.3333333,9.62133333 27.8186667,9.464 27.104,9.464 Z M108.768,7.48 C109.141333,7.48 109.448,7.58933333 109.688,7.808 C109.928,8.02666667 110.048,8.30666667 110.048,8.648 C110.048,8.98933333 109.928,9.272 109.688,9.496 C109.448,9.72 109.141333,9.832 108.768,9.832 C108.394667,9.832 108.088,9.72 107.848,9.496 C107.608,9.272 107.488,8.98933333 107.488,8.648 C107.488,8.30666667 107.608,8.02666667 107.848,7.808 C108.088,7.58933333 108.394667,7.48 108.768,7.48 Z M49.776,7.48 C50.1493333,7.48 50.456,7.58933333 50.696,7.808 C50.936,8.02666667 51.056,8.30666667 51.056,8.648 C51.056,8.98933333 50.936,9.272 50.696,9.496 C50.456,9.72 50.1493333,9.832 49.776,9.832 C49.4026667,9.832 49.096,9.72 48.856,9.496 C48.616,9.272 48.496,8.98933333 48.496,8.648 C48.496,8.30666667 48.616,8.02666667 48.856,7.808 C49.096,7.58933333 49.4026667,7.48 49.776,7.48 Z" id="形状结合" fill="#00031B" fill-rule="nonzero"></path>
        <rect id="矩形备份-6" stroke="#00031B" stroke-width="2" x="1" y="7" width="16" height="16"></rect>
        <polygon id="矩形备份-7" fill="#0007FF" points="8 8 16 16 8 16"></polygon>
    </g>
</svg>